<svg width="387" height="361" viewBox="0 0 387 361" fill="none" xmlns="http://www.w3.org/2000/svg">
<g opacity="0.1">
<mask id="mask0_1_470" style="mask-type:alpha" maskUnits="userSpaceOnUse" x="0" y="0" width="387" height="361">
<rect x="386.5" y="0.5" width="360" height="386" transform="rotate(90 386.5 0.5)" fill="url(#paint0_linear_1_470)" stroke="#6246E5"/>
</mask>
<g mask="url(#mask0_1_470)">
<path d="M143.505 453.92C74.1724 453.92 17.9658 397.635 17.9658 328.202C17.9658 258.769 74.1724 202.484 143.505 202.484C212.838 202.484 269.045 258.769 269.045 328.202C269.045 397.635 212.838 453.92 143.505 453.92Z" stroke="#6246E5"/>
<path d="M156.773 458.902C79.1965 458.902 16.3075 395.925 16.3075 318.237C16.3075 240.55 79.1965 177.573 156.773 177.573C234.349 177.573 297.238 240.55 297.238 318.237C297.238 395.925 234.349 458.902 156.773 458.902Z" stroke="#6246E5"/>
<path d="M167.552 463.885C82.6488 463.885 13.8198 394.959 13.8198 309.934C13.8198 224.909 82.6488 155.983 167.552 155.983C252.456 155.983 321.285 224.909 321.285 309.934C321.285 394.959 252.456 463.885 167.552 463.885Z" stroke="#6246E5"/>
<path d="M183.308 467.206C91.9927 467.206 17.9662 393.076 17.9662 301.63C17.9662 210.184 91.9927 136.054 183.308 136.054C274.622 136.054 348.649 210.184 348.649 301.63C348.649 393.076 274.622 467.206 183.308 467.206Z" stroke="#6246E5"/>
<path d="M198.648 470.528C101.15 470.528 22.112 391.378 22.1121 293.742C22.1121 196.105 101.15 116.955 198.648 116.955C296.145 116.955 375.183 196.105 375.183 293.742C375.183 391.379 296.145 470.528 198.648 470.528Z" stroke="#6246E5"/>
<path d="M216.061 474.68C108.947 474.68 22.112 387.723 22.1121 280.456C22.1121 173.188 108.947 86.2314 216.061 86.2314C323.175 86.2314 410.01 173.188 410.01 280.456C410.01 387.723 323.175 474.68 216.061 474.68Z" stroke="#6246E5"/>
</g>
</g>
<defs>
<linearGradient id="paint0_linear_1_470" x1="643.035" y1="10.8577" x2="468.291" y2="421.585" gradientUnits="userSpaceOnUse">
<stop stop-color="#747DEF"/>
<stop offset="1" stop-color="#5E3BE1"/>
</linearGradient>
</defs>
</svg>
